{"title":"Just.Go.With.It.2011.R5.LiNE.x264.Feel-Free","uid":6318378,"size":987957202,"categoryP":"video","categoryS":"movies","magnet":"?xt=urn:btih:1efdc87ece8e404012a55cfeabb1cb78022e90cf&amp;dn=Just.Go.With.It.2011.R5.LiNE.x264.Feel-Free&amp;tr=udp%3A%2F%2Ftracker.openbittorrent.com%3A80&amp;tr=udp%3A%2F%2Fopen.demonii.com%3A1337&amp;tr=udp%3A%2F%2Ftracker.coppersurfer.tk%3A6969&amp;tr=udp%3A%2F%2Fexodus.desync.com%3A6969","seeders":3,"leechers":0,"uploader":"qwersd","files":10,"time":1302739521,"description":"Genre:Comedy | Romance\nLanguage:English\nIMDb:http://www.imdb.com/title/tt1564367/\nSource:DVD5/AUDIO:RX.Thanks!\nSubtitles:Romana\n\n\nFormat : MPEG-4\nFormat profile : Base Media\nCodec ID : isom\nFile size : 940 MiB\nDuration : 1h 51mn\nOverall bit rate : 1 175 Kbps\n\n\nVideo\nFormat profile : &lt;a class=&quot;__cf_email__&quot; href=&quot;/cdn-cgi/l/email-protection&quot; data-cfemail=&quot;3b73525c537b770f150a&quot;&gt;[email&amp;#160;protected]&lt;/a&gt;&lt;script cf-hash='f9e31' type=&quot;text/javascript&quot;&gt;\n/* &lt;![CDATA[ */!function(){try{var t=&quot;currentScript&quot;in document?document.currentScript:function(){for(var t=document.getElementsByTagName(&quot;script&quot;),e=t.length;e--;)if(t[e].getAttribute(&quot;cf-hash&quot;))return t[e]}();if(t&amp;&amp;t.previousSibling){var e,r,n,i,c=t.previousSibling,a=c.getAttribute(&quot;data-cfemail&quot;);if(a){for(e=&quot;&quot;,r=parseInt(a.substr(0,2),16),n=2;a.length-n;n+=2)i=parseInt(a.substr(n,2),16)^r,e+=String.fromCharCode(i);e=document.createTextNode(e),c.parentNode.replaceChild(e,c)}}}catch(u){}}();/* ]]&gt; */&lt;/script&gt;\nFormat settings, CABAC : Yes\nFormat settings, ReFrames : 3 frames\nCodec ID : avc1\nCodec ID/Info : Advanced Video Coding\nDuration : 1h 51mn\nBit rate mode : Variable\nBit rate : 935 Kbps\nMaximum bit rate : 4 363 Kbps\nWidth : 720 pixels\nHeight : 400 pixels\nDisplay aspect ratio : 16:9\nFrame rate mode : Constant\nFrame rate : 25.000 fps\nColor space : YUV\nChroma subsampling : 4:2:0\nBit depth : 8 bits\nScan type : Progressive\nBits/(Pixel*Frame) : 0.130\nStream size : 742 MiB (79%)\nWriting library : x264 \n\n\nAudio\nID : 2\nFormat : AAC\nFormat/Info : Advanced Audio Codec\nFormat version : Version 4\nFormat profile : LC\nFormat settings, SBR : No\nCodec ID : 40\nDuration : 1h 51mn\nBit rate mode : Variable\nBit rate : 244 Kbps\nMaximum bit rate : 311 Kbps\nChannel(s) : 2 channels\nChannel positions : Front: L R\nSampling rate : 44.1 KHz\nStream size : 195 MiB (21%)\n\n\n\nPlot:\nOn a weekend trip to Hawaii, a plastic surgeon convinces his loyal assistant\nto pose as his soon-to-be-divorced wife in order to cover up a careless lie\nhe told to his much-younger girlfriend.","torrent":{"xt":"urn:btih:1efdc87ece8e404012a55cfeabb1cb78022e90cf","amp;dn":"Just.Go.With.It.2011.R5.LiNE.x264.Feel-Free","amp;tr":["udp%3A%2F%2Ftracker.openbittorrent.com%3A80","udp%3A%2F%2Fopen.demonii.com%3A1337","udp%3A%2F%2Ftracker.coppersurfer.tk%3A6969","udp%3A%2F%2Fexodus.desync.com%3A6969"],"infoHash":"1efdc87ece8e404012a55cfeabb1cb78022e90cf","infoHashBuffer":{"type":"Buffer","data":[30,253,200,126,206,142,64,64,18,165,92,254,171,177,203,120,2,46,144,207]},"announce":[],"urlList":[]}}